<?xml version="1.0" encoding="utf-8" standalone="no"?>
<!DOCTYPE svg PUBLIC "-//W3C//DTD SVG 1.1//EN"
  "http://www.w3.org/Graphics/SVG/1.1/DTD/svg11.dtd">
<svg xmlns:xlink="http://www.w3.org/1999/xlink" width="672.317475pt" height="568.31625pt" viewBox="0 0 672.317475 568.31625" xmlns="http://www.w3.org/2000/svg" version="1.1">
 <metadata>
  <rdf:RDF xmlns:dc="http://purl.org/dc/elements/1.1/" xmlns:cc="http://creativecommons.org/ns#" xmlns:rdf="http://www.w3.org/1999/02/22-rdf-syntax-ns#">
   <cc:Work>
    <dc:type rdf:resource="http://purl.org/dc/dcmitype/StillImage"/>
    <dc:date>2026-01-05T01:43:03.125525</dc:date>
    <dc:format>image/svg+xml</dc:format>
    <dc:creator>
     <cc:Agent>
      <dc:title>Matplotlib v3.10.7, https://matplotlib.org/</dc:title>
     </cc:Agent>
    </dc:creator>
   </cc:Work>
  </rdf:RDF>
 </metadata>
 <defs>
  <style type="text/css">*{stroke-linejoin: round; stroke-linecap: butt}</style>
 </defs>
 <g id="figure_1">
  <g id="patch_1">
   <path d="M -0 568.31625 
L 672.317475 568.31625 
L 672.317475 0 
L -0 0 
z
" style="fill: #ffffff"/>
  </g>
  <g id="axes_1">
   <g id="LineCollection_1">
    <path d="M 402.915186 234.296871 
L 344.794508 175.269889 
" clip-path="url(#p0c4d49a90b)" style="fill: none; stroke: #000000; stroke-width: 1.8"/>
    <path d="M 402.915186 234.296871 
L 334.484895 288.010878 
" clip-path="url(#p0c4d49a90b)" style="fill: none; stroke: #000000; stroke-width: 1.8"/>
    <path d="M 344.794508 175.269889 
L 309.267834 77.400217 
" clip-path="url(#p0c4d49a90b)" style="fill: none; stroke: #000000; stroke-width: 1.8"/>
    <path d="M 344.794508 175.269889 
L 277.622499 191.057532 
" clip-path="url(#p0c4d49a90b)" style="fill: none; stroke: #000000; stroke-width: 1.8"/>
    <path d="M 344.794508 175.269889 
L 334.484895 288.010878 
" clip-path="url(#p0c4d49a90b)" style="fill: none; stroke: #000000; stroke-width: 1.8"/>
    <path d="M 309.267834 77.400217 
L 277.622499 191.057532 
" clip-path="url(#p0c4d49a90b)" style="fill: none; stroke: #000000; stroke-width: 1.8"/>
    <path d="M 277.622499 191.057532 
L 334.484895 288.010878 
" clip-path="url(#p0c4d49a90b)" style="fill: none; stroke: #000000; stroke-width: 1.8"/>
    <path d="M 277.622499 191.057532 
L 199.708714 218.63495 
" clip-path="url(#p0c4d49a90b)" style="fill: none; stroke: #000000; stroke-width: 1.8"/>
    <path d="M 334.484895 288.010878 
L 319.413906 417.883205 
" clip-path="url(#p0c4d49a90b)" style="fill: none; stroke: #000000; stroke-width: 1.8"/>
    <path d="M 319.413906 417.883205 
L 242.269882 498.621491 
" clip-path="url(#p0c4d49a90b)" style="fill: none; stroke: #000000; stroke-width: 1.8"/>
    <path d="M 319.413906 417.883205 
L 363.836253 514.596727 
" clip-path="url(#p0c4d49a90b)" style="fill: none; stroke: #000000; stroke-width: 1.8"/>
    <path d="M 319.413906 417.883205 
L 298.456448 515.152283 
" clip-path="url(#p0c4d49a90b)" style="fill: none; stroke: #000000; stroke-width: 1.8"/>
    <path d="M 199.708714 218.63495 
L 142.559814 135.229073 
" clip-path="url(#p0c4d49a90b)" style="fill: none; stroke: #000000; stroke-width: 1.8"/>
    <path d="M 199.708714 218.63495 
L 174.307961 345.760983 
" clip-path="url(#p0c4d49a90b)" style="fill: none; stroke: #000000; stroke-width: 1.8"/>
    <path d="M 174.307961 345.760983 
L 159.018729 461.420327 
" clip-path="url(#p0c4d49a90b)" style="fill: none; stroke: #000000; stroke-width: 1.8"/>
    <path d="M 174.307961 345.760983 
L 220.787329 450.765478 
" clip-path="url(#p0c4d49a90b)" style="fill: none; stroke: #000000; stroke-width: 1.8"/>
    <path d="M 159.018729 461.420327 
L 242.269882 498.621491 
" clip-path="url(#p0c4d49a90b)" style="fill: none; stroke: #000000; stroke-width: 1.8"/>
    <path d="M 363.836253 514.596727 
L 298.456448 515.152283 
" clip-path="url(#p0c4d49a90b)" style="fill: none; stroke: #000000; stroke-width: 1.8"/>
    <path d="M 298.456448 515.152283 
L 220.787329 450.765478 
" clip-path="url(#p0c4d49a90b)" style="fill: none; stroke: #000000; stroke-width: 1.8"/>
   </g>
   <g id="PathCollection_1">
    <defs>
     <path id="C0_0_bfef434c9f" d="M 0 17.320508 
C 4.593452 17.320508 8.999387 15.49551 12.247449 12.247449 
C 15.49551 8.999387 17.320508 4.593452 17.320508 -0 
C 17.320508 -4.593452 15.49551 -8.999387 12.247449 -12.247449 
C 8.999387 -15.49551 4.593452 -17.320508 0 -17.320508 
C -4.593452 -17.320508 -8.999387 -15.49551 -12.247449 -12.247449 
C -15.49551 -8.999387 -17.320508 -4.593452 -17.320508 0 
C -17.320508 4.593452 -15.49551 8.999387 -12.247449 12.247449 
C -8.999387 15.49551 -4.593452 17.320508 0 17.320508 
z
"/>
    </defs>
    <g clip-path="url(#p0c4d49a90b)">
     <use xlink:href="#C0_0_bfef434c9f" x="402.915186" y="234.296871" style="fill: #87ceeb; stroke: #000000"/>
    </g>
    <g clip-path="url(#p0c4d49a90b)">
     <use xlink:href="#C0_0_bfef434c9f" x="344.794508" y="175.269889" style="fill: #ffa500; stroke: #000000"/>
    </g>
    <g clip-path="url(#p0c4d49a90b)">
     <use xlink:href="#C0_0_bfef434c9f" x="309.267834" y="77.400217" style="fill: #87ceeb; stroke: #000000"/>
    </g>
    <g clip-path="url(#p0c4d49a90b)">
     <use xlink:href="#C0_0_bfef434c9f" x="277.622499" y="191.057532" style="fill: #87ceeb; stroke: #000000"/>
    </g>
    <g clip-path="url(#p0c4d49a90b)">
     <use xlink:href="#C0_0_bfef434c9f" x="334.484895" y="288.010878" style="fill: #87ceeb; stroke: #000000"/>
    </g>
    <g clip-path="url(#p0c4d49a90b)">
     <use xlink:href="#C0_0_bfef434c9f" x="319.413906" y="417.883205" style="fill: #ffa500; stroke: #000000"/>
    </g>
    <g clip-path="url(#p0c4d49a90b)">
     <use xlink:href="#C0_0_bfef434c9f" x="199.708714" y="218.63495" style="fill: #ffa500; stroke: #000000"/>
    </g>
    <g clip-path="url(#p0c4d49a90b)">
     <use xlink:href="#C0_0_bfef434c9f" x="142.559814" y="135.229073" style="fill: #87ceeb; stroke: #000000"/>
    </g>
    <g clip-path="url(#p0c4d49a90b)">
     <use xlink:href="#C0_0_bfef434c9f" x="174.307961" y="345.760983" style="fill: #ffa500; stroke: #000000"/>
    </g>
    <g clip-path="url(#p0c4d49a90b)">
     <use xlink:href="#C0_0_bfef434c9f" x="159.018729" y="461.420327" style="fill: #87ceeb; stroke: #000000"/>
    </g>
    <g clip-path="url(#p0c4d49a90b)">
     <use xlink:href="#C0_0_bfef434c9f" x="242.269882" y="498.621491" style="fill: #87ceeb; stroke: #000000"/>
    </g>
    <g clip-path="url(#p0c4d49a90b)">
     <use xlink:href="#C0_0_bfef434c9f" x="363.836253" y="514.596727" style="fill: #87ceeb; stroke: #000000"/>
    </g>
    <g clip-path="url(#p0c4d49a90b)">
     <use xlink:href="#C0_0_bfef434c9f" x="298.456448" y="515.152283" style="fill: #87ceeb; stroke: #000000"/>
    </g>
    <g clip-path="url(#p0c4d49a90b)">
     <use xlink:href="#C0_0_bfef434c9f" x="220.787329" y="450.765478" style="fill: #87ceeb; stroke: #000000"/>
    </g>
   </g>
   <g id="text_1">
    <g clip-path="url(#p0c4d49a90b)">
     <!-- 0 -->
     <g transform="translate(398.044717 238.159996) scale(0.14 -0.14)">
      <defs>
       <path id="DejaVuSans-Bold-30" d="M 2944 2338 
Q 2944 3213 2780 3570 
Q 2616 3928 2228 3928 
Q 1841 3928 1675 3570 
Q 1509 3213 1509 2338 
Q 1509 1453 1675 1090 
Q 1841 728 2228 728 
Q 2613 728 2778 1090 
Q 2944 1453 2944 2338 
z
M 4147 2328 
Q 4147 1169 3647 539 
Q 3147 -91 2228 -91 
Q 1306 -91 806 539 
Q 306 1169 306 2328 
Q 306 3491 806 4120 
Q 1306 4750 2228 4750 
Q 3147 4750 3647 4120 
Q 4147 3491 4147 2328 
z
" transform="scale(0.015625)"/>
      </defs>
      <use xlink:href="#DejaVuSans-Bold-30"/>
     </g>
    </g>
   </g>
   <g id="text_2">
    <g clip-path="url(#p0c4d49a90b)">
     <!-- 1 -->
     <g transform="translate(339.924039 179.133014) scale(0.14 -0.14)">
      <defs>
       <path id="DejaVuSans-Bold-31" d="M 750 831 
L 1813 831 
L 1813 3847 
L 722 3622 
L 722 4441 
L 1806 4666 
L 2950 4666 
L 2950 831 
L 4013 831 
L 4013 0 
L 750 0 
L 750 831 
z
" transform="scale(0.015625)"/>
      </defs>
      <use xlink:href="#DejaVuSans-Bold-31"/>
     </g>
    </g>
   </g>
   <g id="text_3">
    <g clip-path="url(#p0c4d49a90b)">
     <!-- 2 -->
     <g transform="translate(304.397365 81.263342) scale(0.14 -0.14)">
      <defs>
       <path id="DejaVuSans-Bold-32" d="M 1844 884 
L 3897 884 
L 3897 0 
L 506 0 
L 506 884 
L 2209 2388 
Q 2438 2594 2547 2791 
Q 2656 2988 2656 3200 
Q 2656 3528 2436 3728 
Q 2216 3928 1850 3928 
Q 1569 3928 1234 3808 
Q 900 3688 519 3450 
L 519 4475 
Q 925 4609 1322 4679 
Q 1719 4750 2100 4750 
Q 2938 4750 3402 4381 
Q 3866 4013 3866 3353 
Q 3866 2972 3669 2642 
Q 3472 2313 2841 1759 
L 1844 884 
z
" transform="scale(0.015625)"/>
      </defs>
      <use xlink:href="#DejaVuSans-Bold-32"/>
     </g>
    </g>
   </g>
   <g id="text_4">
    <g clip-path="url(#p0c4d49a90b)">
     <!-- 3 -->
     <g transform="translate(272.75203 194.920657) scale(0.14 -0.14)">
      <defs>
       <path id="DejaVuSans-Bold-33" d="M 2981 2516 
Q 3453 2394 3698 2092 
Q 3944 1791 3944 1325 
Q 3944 631 3412 270 
Q 2881 -91 1863 -91 
Q 1503 -91 1142 -33 
Q 781 25 428 141 
L 428 1069 
Q 766 900 1098 814 
Q 1431 728 1753 728 
Q 2231 728 2486 893 
Q 2741 1059 2741 1369 
Q 2741 1688 2480 1852 
Q 2219 2016 1709 2016 
L 1228 2016 
L 1228 2791 
L 1734 2791 
Q 2188 2791 2409 2933 
Q 2631 3075 2631 3366 
Q 2631 3634 2415 3781 
Q 2200 3928 1806 3928 
Q 1516 3928 1219 3862 
Q 922 3797 628 3669 
L 628 4550 
Q 984 4650 1334 4700 
Q 1684 4750 2022 4750 
Q 2931 4750 3382 4451 
Q 3834 4153 3834 3553 
Q 3834 3144 3618 2883 
Q 3403 2622 2981 2516 
z
" transform="scale(0.015625)"/>
      </defs>
      <use xlink:href="#DejaVuSans-Bold-33"/>
     </g>
    </g>
   </g>
   <g id="text_5">
    <g clip-path="url(#p0c4d49a90b)">
     <!-- 4 -->
     <g transform="translate(329.614427 291.874003) scale(0.14 -0.14)">
      <defs>
       <path id="DejaVuSans-Bold-34" d="M 2356 3675 
L 1038 1722 
L 2356 1722 
L 2356 3675 
z
M 2156 4666 
L 3494 4666 
L 3494 1722 
L 4159 1722 
L 4159 850 
L 3494 850 
L 3494 0 
L 2356 0 
L 2356 850 
L 288 850 
L 288 1881 
L 2156 4666 
z
" transform="scale(0.015625)"/>
      </defs>
      <use xlink:href="#DejaVuSans-Bold-34"/>
     </g>
    </g>
   </g>
   <g id="text_6">
    <g clip-path="url(#p0c4d49a90b)">
     <!-- 5 -->
     <g transform="translate(314.543437 421.74633) scale(0.14 -0.14)">
      <defs>
       <path id="DejaVuSans-Bold-35" d="M 678 4666 
L 3669 4666 
L 3669 3781 
L 1638 3781 
L 1638 3059 
Q 1775 3097 1914 3117 
Q 2053 3138 2203 3138 
Q 3056 3138 3531 2711 
Q 4006 2284 4006 1522 
Q 4006 766 3489 337 
Q 2972 -91 2053 -91 
Q 1656 -91 1267 -14 
Q 878 63 494 219 
L 494 1166 
Q 875 947 1217 837 
Q 1559 728 1863 728 
Q 2300 728 2551 942 
Q 2803 1156 2803 1522 
Q 2803 1891 2551 2103 
Q 2300 2316 1863 2316 
Q 1603 2316 1309 2248 
Q 1016 2181 678 2041 
L 678 4666 
z
" transform="scale(0.015625)"/>
      </defs>
      <use xlink:href="#DejaVuSans-Bold-35"/>
     </g>
    </g>
   </g>
   <g id="text_7">
    <g clip-path="url(#p0c4d49a90b)">
     <!-- 6 -->
     <g transform="translate(194.838246 222.498075) scale(0.14 -0.14)">
      <defs>
       <path id="DejaVuSans-Bold-36" d="M 2316 2303 
Q 2000 2303 1842 2098 
Q 1684 1894 1684 1484 
Q 1684 1075 1842 870 
Q 2000 666 2316 666 
Q 2634 666 2792 870 
Q 2950 1075 2950 1484 
Q 2950 1894 2792 2098 
Q 2634 2303 2316 2303 
z
M 3803 4544 
L 3803 3681 
Q 3506 3822 3243 3889 
Q 2981 3956 2731 3956 
Q 2194 3956 1894 3657 
Q 1594 3359 1544 2772 
Q 1750 2925 1990 3001 
Q 2231 3078 2516 3078 
Q 3231 3078 3670 2659 
Q 4109 2241 4109 1563 
Q 4109 813 3618 361 
Q 3128 -91 2303 -91 
Q 1394 -91 895 523 
Q 397 1138 397 2266 
Q 397 3422 980 4083 
Q 1563 4744 2578 4744 
Q 2900 4744 3203 4694 
Q 3506 4644 3803 4544 
z
" transform="scale(0.015625)"/>
      </defs>
      <use xlink:href="#DejaVuSans-Bold-36"/>
     </g>
    </g>
   </g>
   <g id="text_8">
    <g clip-path="url(#p0c4d49a90b)">
     <!-- 7 -->
     <g transform="translate(137.689345 139.092198) scale(0.14 -0.14)">
      <defs>
       <path id="DejaVuSans-Bold-37" d="M 428 4666 
L 3944 4666 
L 3944 3988 
L 2125 0 
L 953 0 
L 2675 3781 
L 428 3781 
L 428 4666 
z
" transform="scale(0.015625)"/>
      </defs>
      <use xlink:href="#DejaVuSans-Bold-37"/>
     </g>
    </g>
   </g>
   <g id="text_9">
    <g clip-path="url(#p0c4d49a90b)">
     <!-- 8 -->
     <g transform="translate(169.437492 349.624108) scale(0.14 -0.14)">
      <defs>
       <path id="DejaVuSans-Bold-38" d="M 2228 2088 
Q 1891 2088 1709 1903 
Q 1528 1719 1528 1375 
Q 1528 1031 1709 848 
Q 1891 666 2228 666 
Q 2563 666 2741 848 
Q 2919 1031 2919 1375 
Q 2919 1722 2741 1905 
Q 2563 2088 2228 2088 
z
M 1350 2484 
Q 925 2613 709 2878 
Q 494 3144 494 3541 
Q 494 4131 934 4440 
Q 1375 4750 2228 4750 
Q 3075 4750 3515 4442 
Q 3956 4134 3956 3541 
Q 3956 3144 3739 2878 
Q 3522 2613 3097 2484 
Q 3572 2353 3814 2058 
Q 4056 1763 4056 1313 
Q 4056 619 3595 264 
Q 3134 -91 2228 -91 
Q 1319 -91 855 264 
Q 391 619 391 1313 
Q 391 1763 633 2058 
Q 875 2353 1350 2484 
z
M 1631 3419 
Q 1631 3141 1786 2991 
Q 1941 2841 2228 2841 
Q 2509 2841 2662 2991 
Q 2816 3141 2816 3419 
Q 2816 3697 2662 3845 
Q 2509 3994 2228 3994 
Q 1941 3994 1786 3844 
Q 1631 3694 1631 3419 
z
" transform="scale(0.015625)"/>
      </defs>
      <use xlink:href="#DejaVuSans-Bold-38"/>
     </g>
    </g>
   </g>
   <g id="text_10">
    <g clip-path="url(#p0c4d49a90b)">
     <!-- 9 -->
     <g transform="translate(154.14826 465.283452) scale(0.14 -0.14)">
      <defs>
       <path id="DejaVuSans-Bold-39" d="M 641 103 
L 641 966 
Q 928 831 1190 764 
Q 1453 697 1709 697 
Q 2247 697 2547 995 
Q 2847 1294 2900 1881 
Q 2688 1725 2447 1647 
Q 2206 1569 1925 1569 
Q 1209 1569 770 1986 
Q 331 2403 331 3084 
Q 331 3838 820 4291 
Q 1309 4744 2131 4744 
Q 3044 4744 3544 4128 
Q 4044 3513 4044 2388 
Q 4044 1231 3459 570 
Q 2875 -91 1856 -91 
Q 1528 -91 1228 -42 
Q 928 6 641 103 
z
M 2125 2350 
Q 2441 2350 2600 2554 
Q 2759 2759 2759 3169 
Q 2759 3575 2600 3781 
Q 2441 3988 2125 3988 
Q 1809 3988 1650 3781 
Q 1491 3575 1491 3169 
Q 1491 2759 1650 2554 
Q 1809 2350 2125 2350 
z
" transform="scale(0.015625)"/>
      </defs>
      <use xlink:href="#DejaVuSans-Bold-39"/>
     </g>
    </g>
   </g>
   <g id="text_11">
    <g clip-path="url(#p0c4d49a90b)">
     <!-- 10 -->
     <g transform="translate(232.528944 502.484616) scale(0.14 -0.14)">
      <use xlink:href="#DejaVuSans-Bold-31"/>
      <use xlink:href="#DejaVuSans-Bold-30" transform="translate(69.580078 0)"/>
     </g>
    </g>
   </g>
   <g id="text_12">
    <g clip-path="url(#p0c4d49a90b)">
     <!-- 11 -->
     <g transform="translate(354.095315 518.459852) scale(0.14 -0.14)">
      <use xlink:href="#DejaVuSans-Bold-31"/>
      <use xlink:href="#DejaVuSans-Bold-31" transform="translate(69.580078 0)"/>
     </g>
    </g>
   </g>
   <g id="text_13">
    <g clip-path="url(#p0c4d49a90b)">
     <!-- 12 -->
     <g transform="translate(288.715511 519.015408) scale(0.14 -0.14)">
      <use xlink:href="#DejaVuSans-Bold-31"/>
      <use xlink:href="#DejaVuSans-Bold-32" transform="translate(69.580078 0)"/>
     </g>
    </g>
   </g>
   <g id="text_14">
    <g clip-path="url(#p0c4d49a90b)">
     <!-- 13 -->
     <g transform="translate(211.046392 454.628603) scale(0.14 -0.14)">
      <use xlink:href="#DejaVuSans-Bold-31"/>
      <use xlink:href="#DejaVuSans-Bold-33" transform="translate(69.580078 0)"/>
     </g>
    </g>
   </g>
   <g id="line2d_1">
    <path d="M 277.622499 191.057532 
L 174.307961 345.760983 
" clip-path="url(#p0c4d49a90b)" style="fill: none; stroke: #ff0000; stroke-opacity: 0.9; stroke-width: 6; stroke-linecap: square"/>
   </g>
   <g id="text_15">
    <!-- Greedy PMUs (faulted, top-K) — IEEE14 -->
    <g transform="translate(7.2 25.43625) scale(0.24 -0.24)">
     <defs>
      <path id="DejaVuSans-Bold-47" d="M 4781 347 
Q 4331 128 3847 18 
Q 3363 -91 2847 -91 
Q 1681 -91 1000 561 
Q 319 1213 319 2328 
Q 319 3456 1012 4103 
Q 1706 4750 2913 4750 
Q 3378 4750 3804 4662 
Q 4231 4575 4609 4403 
L 4609 3438 
Q 4219 3659 3833 3768 
Q 3447 3878 3059 3878 
Q 2341 3878 1952 3476 
Q 1563 3075 1563 2328 
Q 1563 1588 1938 1184 
Q 2313 781 3003 781 
Q 3191 781 3352 804 
Q 3513 828 3641 878 
L 3641 1784 
L 2906 1784 
L 2906 2591 
L 4781 2591 
L 4781 347 
z
" transform="scale(0.015625)"/>
      <path id="DejaVuSans-Bold-72" d="M 3138 2547 
Q 2991 2616 2845 2648 
Q 2700 2681 2553 2681 
Q 2122 2681 1889 2404 
Q 1656 2128 1656 1613 
L 1656 0 
L 538 0 
L 538 3500 
L 1656 3500 
L 1656 2925 
Q 1872 3269 2151 3426 
Q 2431 3584 2822 3584 
Q 2878 3584 2943 3579 
Q 3009 3575 3134 3559 
L 3138 2547 
z
" transform="scale(0.015625)"/>
      <path id="DejaVuSans-Bold-65" d="M 4031 1759 
L 4031 1441 
L 1416 1441 
Q 1456 1047 1700 850 
Q 1944 653 2381 653 
Q 2734 653 3104 758 
Q 3475 863 3866 1075 
L 3866 213 
Q 3469 63 3072 -14 
Q 2675 -91 2278 -91 
Q 1328 -91 801 392 
Q 275 875 275 1747 
Q 275 2603 792 3093 
Q 1309 3584 2216 3584 
Q 3041 3584 3536 3087 
Q 4031 2591 4031 1759 
z
M 2881 2131 
Q 2881 2450 2695 2645 
Q 2509 2841 2209 2841 
Q 1884 2841 1681 2658 
Q 1478 2475 1428 2131 
L 2881 2131 
z
" transform="scale(0.015625)"/>
      <path id="DejaVuSans-Bold-64" d="M 2919 2988 
L 2919 4863 
L 4044 4863 
L 4044 0 
L 2919 0 
L 2919 506 
Q 2688 197 2409 53 
Q 2131 -91 1766 -91 
Q 1119 -91 703 423 
Q 288 938 288 1747 
Q 288 2556 703 3070 
Q 1119 3584 1766 3584 
Q 2128 3584 2408 3439 
Q 2688 3294 2919 2988 
z
M 2181 722 
Q 2541 722 2730 984 
Q 2919 1247 2919 1747 
Q 2919 2247 2730 2509 
Q 2541 2772 2181 2772 
Q 1825 2772 1636 2509 
Q 1447 2247 1447 1747 
Q 1447 1247 1636 984 
Q 1825 722 2181 722 
z
" transform="scale(0.015625)"/>
      <path id="DejaVuSans-Bold-79" d="M 78 3500 
L 1197 3500 
L 2138 1125 
L 2938 3500 
L 4056 3500 
L 2584 -331 
Q 2363 -916 2067 -1148 
Q 1772 -1381 1288 -1381 
L 641 -1381 
L 641 -647 
L 991 -647 
Q 1275 -647 1404 -556 
Q 1534 -466 1606 -231 
L 1638 -134 
L 78 3500 
z
" transform="scale(0.015625)"/>
      <path id="DejaVuSans-Bold-20" transform="scale(0.015625)"/>
      <path id="DejaVuSans-Bold-50" d="M 588 4666 
L 2584 4666 
Q 3475 4666 3951 4270 
Q 4428 3875 4428 3144 
Q 4428 2409 3951 2014 
Q 3475 1619 2584 1619 
L 1791 1619 
L 1791 0 
L 588 0 
L 588 4666 
z
M 1791 3794 
L 1791 2491 
L 2456 2491 
Q 2806 2491 2997 2661 
Q 3188 2831 3188 3144 
Q 3188 3456 2997 3625 
Q 2806 3794 2456 3794 
L 1791 3794 
z
" transform="scale(0.015625)"/>
      <path id="DejaVuSans-Bold-4d" d="M 588 4666 
L 2119 4666 
L 3181 2169 
L 4250 4666 
L 5778 4666 
L 5778 0 
L 4641 0 
L 4641 3413 
L 3566 897 
L 2803 897 
L 1728 3413 
L 1728 0 
L 588 0 
L 588 4666 
z
" transform="scale(0.015625)"/>
      <path id="DejaVuSans-Bold-55" d="M 588 4666 
L 1791 4666 
L 1791 1869 
Q 1791 1291 1980 1042 
Q 2169 794 2597 794 
Q 3028 794 3217 1042 
Q 3406 1291 3406 1869 
L 3406 4666 
L 4609 4666 
L 4609 1869 
Q 4609 878 4112 393 
Q 3616 -91 2597 -91 
Q 1581 -91 1084 393 
Q 588 878 588 1869 
L 588 4666 
z
" transform="scale(0.015625)"/>
      <path id="DejaVuSans-Bold-73" d="M 3272 3391 
L 3272 2541 
Q 2913 2691 2578 2766 
Q 2244 2841 1947 2841 
Q 1628 2841 1473 2761 
Q 1319 2681 1319 2516 
Q 1319 2381 1436 2309 
Q 1553 2238 1856 2203 
L 2053 2175 
Q 2913 2066 3209 1816 
Q 3506 1566 3506 1031 
Q 3506 472 3093 190 
Q 2681 -91 1863 -91 
Q 1516 -91 1145 -36 
Q 775 19 384 128 
L 384 978 
Q 719 816 1070 734 
Q 1422 653 1784 653 
Q 2113 653 2278 743 
Q 2444 834 2444 1013 
Q 2444 1163 2330 1236 
Q 2216 1309 1875 1350 
L 1678 1375 
Q 931 1469 631 1722 
Q 331 1975 331 2491 
Q 331 3047 712 3315 
Q 1094 3584 1881 3584 
Q 2191 3584 2531 3537 
Q 2872 3491 3272 3391 
z
" transform="scale(0.015625)"/>
      <path id="DejaVuSans-Bold-28" d="M 2413 -844 
L 1484 -844 
Q 1006 -72 778 623 
Q 550 1319 550 2003 
Q 550 2688 779 3389 
Q 1009 4091 1484 4856 
L 2413 4856 
Q 2013 4116 1813 3408 
Q 1613 2700 1613 2009 
Q 1613 1319 1811 609 
Q 2009 -100 2413 -844 
z
" transform="scale(0.015625)"/>
      <path id="DejaVuSans-Bold-66" d="M 2841 4863 
L 2841 4128 
L 2222 4128 
Q 1984 4128 1890 4042 
Q 1797 3956 1797 3744 
L 1797 3500 
L 2753 3500 
L 2753 2700 
L 1797 2700 
L 1797 0 
L 678 0 
L 678 2700 
L 122 2700 
L 122 3500 
L 678 3500 
L 678 3744 
Q 678 4316 997 4589 
Q 1316 4863 1984 4863 
L 2841 4863 
z
" transform="scale(0.015625)"/>
      <path id="DejaVuSans-Bold-61" d="M 2106 1575 
Q 1756 1575 1579 1456 
Q 1403 1338 1403 1106 
Q 1403 894 1545 773 
Q 1688 653 1941 653 
Q 2256 653 2472 879 
Q 2688 1106 2688 1447 
L 2688 1575 
L 2106 1575 
z
M 3816 1997 
L 3816 0 
L 2688 0 
L 2688 519 
Q 2463 200 2181 54 
Q 1900 -91 1497 -91 
Q 953 -91 614 226 
Q 275 544 275 1050 
Q 275 1666 698 1953 
Q 1122 2241 2028 2241 
L 2688 2241 
L 2688 2328 
Q 2688 2594 2478 2717 
Q 2269 2841 1825 2841 
Q 1466 2841 1156 2769 
Q 847 2697 581 2553 
L 581 3406 
Q 941 3494 1303 3539 
Q 1666 3584 2028 3584 
Q 2975 3584 3395 3211 
Q 3816 2838 3816 1997 
z
" transform="scale(0.015625)"/>
      <path id="DejaVuSans-Bold-75" d="M 500 1363 
L 500 3500 
L 1625 3500 
L 1625 3150 
Q 1625 2866 1622 2436 
Q 1619 2006 1619 1863 
Q 1619 1441 1641 1255 
Q 1663 1069 1716 984 
Q 1784 875 1895 815 
Q 2006 756 2150 756 
Q 2500 756 2700 1025 
Q 2900 1294 2900 1772 
L 2900 3500 
L 4019 3500 
L 4019 0 
L 2900 0 
L 2900 506 
Q 2647 200 2364 54 
Q 2081 -91 1741 -91 
Q 1134 -91 817 281 
Q 500 653 500 1363 
z
" transform="scale(0.015625)"/>
      <path id="DejaVuSans-Bold-6c" d="M 538 4863 
L 1656 4863 
L 1656 0 
L 538 0 
L 538 4863 
z
" transform="scale(0.015625)"/>
      <path id="DejaVuSans-Bold-74" d="M 1759 4494 
L 1759 3500 
L 2913 3500 
L 2913 2700 
L 1759 2700 
L 1759 1216 
Q 1759 972 1856 886 
Q 1953 800 2241 800 
L 2816 800 
L 2816 0 
L 1856 0 
Q 1194 0 917 276 
Q 641 553 641 1216 
L 641 2700 
L 84 2700 
L 84 3500 
L 641 3500 
L 641 4494 
L 1759 4494 
z
" transform="scale(0.015625)"/>
      <path id="DejaVuSans-Bold-2c" d="M 653 1209 
L 1778 1209 
L 1778 256 
L 1006 -909 
L 341 -909 
L 653 256 
L 653 1209 
z
" transform="scale(0.015625)"/>
      <path id="DejaVuSans-Bold-6f" d="M 2203 2784 
Q 1831 2784 1636 2517 
Q 1441 2250 1441 1747 
Q 1441 1244 1636 976 
Q 1831 709 2203 709 
Q 2569 709 2762 976 
Q 2956 1244 2956 1747 
Q 2956 2250 2762 2517 
Q 2569 2784 2203 2784 
z
M 2203 3584 
Q 3106 3584 3614 3096 
Q 4122 2609 4122 1747 
Q 4122 884 3614 396 
Q 3106 -91 2203 -91 
Q 1297 -91 786 396 
Q 275 884 275 1747 
Q 275 2609 786 3096 
Q 1297 3584 2203 3584 
z
" transform="scale(0.015625)"/>
      <path id="DejaVuSans-Bold-70" d="M 1656 506 
L 1656 -1331 
L 538 -1331 
L 538 3500 
L 1656 3500 
L 1656 2988 
Q 1888 3294 2169 3439 
Q 2450 3584 2816 3584 
Q 3463 3584 3878 3070 
Q 4294 2556 4294 1747 
Q 4294 938 3878 423 
Q 3463 -91 2816 -91 
Q 2450 -91 2169 54 
Q 1888 200 1656 506 
z
M 2400 2772 
Q 2041 2772 1848 2508 
Q 1656 2244 1656 1747 
Q 1656 1250 1848 986 
Q 2041 722 2400 722 
Q 2759 722 2948 984 
Q 3138 1247 3138 1747 
Q 3138 2247 2948 2509 
Q 2759 2772 2400 2772 
z
" transform="scale(0.015625)"/>
      <path id="DejaVuSans-Bold-2d" d="M 347 2297 
L 2309 2297 
L 2309 1388 
L 347 1388 
L 347 2297 
z
" transform="scale(0.015625)"/>
      <path id="DejaVuSans-Bold-4b" d="M 588 4666 
L 1791 4666 
L 1791 2963 
L 3525 4666 
L 4922 4666 
L 2675 2456 
L 5153 0 
L 3647 0 
L 1791 1838 
L 1791 0 
L 588 0 
L 588 4666 
z
" transform="scale(0.015625)"/>
      <path id="DejaVuSans-Bold-29" d="M 513 -844 
Q 913 -100 1113 609 
Q 1313 1319 1313 2009 
Q 1313 2700 1113 3408 
Q 913 4116 513 4856 
L 1441 4856 
Q 1916 4091 2145 3389 
Q 2375 2688 2375 2003 
Q 2375 1319 2147 623 
Q 1919 -72 1441 -844 
L 513 -844 
z
" transform="scale(0.015625)"/>
      <path id="DejaVuSans-Bold-2014" d="M 344 2156 
L 6056 2156 
L 6056 1350 
L 344 1350 
L 344 2156 
z
" transform="scale(0.015625)"/>
      <path id="DejaVuSans-Bold-49" d="M 588 4666 
L 1791 4666 
L 1791 0 
L 588 0 
L 588 4666 
z
" transform="scale(0.015625)"/>
      <path id="DejaVuSans-Bold-45" d="M 588 4666 
L 3834 4666 
L 3834 3756 
L 1791 3756 
L 1791 2888 
L 3713 2888 
L 3713 1978 
L 1791 1978 
L 1791 909 
L 3903 909 
L 3903 0 
L 588 0 
L 588 4666 
z
" transform="scale(0.015625)"/>
     </defs>
     <use xlink:href="#DejaVuSans-Bold-47"/>
     <use xlink:href="#DejaVuSans-Bold-72" transform="translate(82.080078 0)"/>
     <use xlink:href="#DejaVuSans-Bold-65" transform="translate(131.396484 0)"/>
     <use xlink:href="#DejaVuSans-Bold-65" transform="translate(199.21875 0)"/>
     <use xlink:href="#DejaVuSans-Bold-64" transform="translate(267.041016 0)"/>
     <use xlink:href="#DejaVuSans-Bold-79" transform="translate(338.623047 0)"/>
     <use xlink:href="#DejaVuSans-Bold-20" transform="translate(403.808594 0)"/>
     <use xlink:href="#DejaVuSans-Bold-50" transform="translate(438.623047 0)"/>
     <use xlink:href="#DejaVuSans-Bold-4d" transform="translate(511.914062 0)"/>
     <use xlink:href="#DejaVuSans-Bold-55" transform="translate(611.425781 0)"/>
     <use xlink:href="#DejaVuSans-Bold-73" transform="translate(692.626953 0)"/>
     <use xlink:href="#DejaVuSans-Bold-20" transform="translate(752.148438 0)"/>
     <use xlink:href="#DejaVuSans-Bold-28" transform="translate(786.962891 0)"/>
     <use xlink:href="#DejaVuSans-Bold-66" transform="translate(832.666016 0)"/>
     <use xlink:href="#DejaVuSans-Bold-61" transform="translate(876.171875 0)"/>
     <use xlink:href="#DejaVuSans-Bold-75" transform="translate(943.652344 0)"/>
     <use xlink:href="#DejaVuSans-Bold-6c" transform="translate(1014.84375 0)"/>
     <use xlink:href="#DejaVuSans-Bold-74" transform="translate(1049.121094 0)"/>
     <use xlink:href="#DejaVuSans-Bold-65" transform="translate(1096.923828 0)"/>
     <use xlink:href="#DejaVuSans-Bold-64" transform="translate(1164.746094 0)"/>
     <use xlink:href="#DejaVuSans-Bold-2c" transform="translate(1236.328125 0)"/>
     <use xlink:href="#DejaVuSans-Bold-20" transform="translate(1274.316406 0)"/>
     <use xlink:href="#DejaVuSans-Bold-74" transform="translate(1309.130859 0)"/>
     <use xlink:href="#DejaVuSans-Bold-6f" transform="translate(1356.933594 0)"/>
     <use xlink:href="#DejaVuSans-Bold-70" transform="translate(1425.634766 0)"/>
     <use xlink:href="#DejaVuSans-Bold-2d" transform="translate(1497.216797 0)"/>
     <use xlink:href="#DejaVuSans-Bold-4b" transform="translate(1538.720703 0)"/>
     <use xlink:href="#DejaVuSans-Bold-29" transform="translate(1616.210938 0)"/>
     <use xlink:href="#DejaVuSans-Bold-20" transform="translate(1661.914062 0)"/>
     <use xlink:href="#DejaVuSans-Bold-2014" transform="translate(1696.728516 0)"/>
     <use xlink:href="#DejaVuSans-Bold-20" transform="translate(1796.728516 0)"/>
     <use xlink:href="#DejaVuSans-Bold-49" transform="translate(1831.542969 0)"/>
     <use xlink:href="#DejaVuSans-Bold-45" transform="translate(1868.75 0)"/>
     <use xlink:href="#DejaVuSans-Bold-45" transform="translate(1937.060547 0)"/>
     <use xlink:href="#DejaVuSans-Bold-45" transform="translate(2005.371094 0)"/>
     <use xlink:href="#DejaVuSans-Bold-31" transform="translate(2073.681641 0)"/>
     <use xlink:href="#DejaVuSans-Bold-34" transform="translate(2143.261719 0)"/>
    </g>
   </g>
   <g id="legend_1">
    <g id="patch_2">
     <path d="M 448.5531 117.13625 
L 662.717475 117.13625 
Q 665.117475 117.13625 665.117475 114.73625 
L 665.117475 43.43625 
Q 665.117475 41.03625 662.717475 41.03625 
L 448.5531 41.03625 
Q 446.1531 41.03625 446.1531 43.43625 
L 446.1531 114.73625 
Q 446.1531 117.13625 448.5531 117.13625 
z
" style="fill: #ffffff; opacity: 0.9; stroke: #cccccc; stroke-linejoin: miter"/>
    </g>
    <g id="text_16">
     <!-- Legend -->
     <g transform="translate(526.674975 56.474063) scale(0.14 -0.14)">
      <defs>
       <path id="DejaVuSans-Bold-4c" d="M 588 4666 
L 1791 4666 
L 1791 909 
L 3903 909 
L 3903 0 
L 588 0 
L 588 4666 
z
" transform="scale(0.015625)"/>
       <path id="DejaVuSans-Bold-67" d="M 2919 594 
Q 2688 288 2409 144 
Q 2131 0 1766 0 
Q 1125 0 706 504 
Q 288 1009 288 1791 
Q 288 2575 706 3076 
Q 1125 3578 1766 3578 
Q 2131 3578 2409 3434 
Q 2688 3291 2919 2981 
L 2919 3500 
L 4044 3500 
L 4044 353 
Q 4044 -491 3511 -936 
Q 2978 -1381 1966 -1381 
Q 1638 -1381 1331 -1331 
Q 1025 -1281 716 -1178 
L 716 -306 
Q 1009 -475 1290 -558 
Q 1572 -641 1856 -641 
Q 2406 -641 2662 -400 
Q 2919 -159 2919 353 
L 2919 594 
z
M 2181 2772 
Q 1834 2772 1640 2515 
Q 1447 2259 1447 1791 
Q 1447 1309 1634 1061 
Q 1822 813 2181 813 
Q 2531 813 2725 1069 
Q 2919 1325 2919 1791 
Q 2919 2259 2725 2515 
Q 2531 2772 2181 2772 
z
" transform="scale(0.015625)"/>
       <path id="DejaVuSans-Bold-6e" d="M 4056 2131 
L 4056 0 
L 2931 0 
L 2931 347 
L 2931 1631 
Q 2931 2084 2911 2256 
Q 2891 2428 2841 2509 
Q 2775 2619 2662 2680 
Q 2550 2741 2406 2741 
Q 2056 2741 1856 2470 
Q 1656 2200 1656 1722 
L 1656 0 
L 538 0 
L 538 3500 
L 1656 3500 
L 1656 2988 
Q 1909 3294 2193 3439 
Q 2478 3584 2822 3584 
Q 3428 3584 3742 3212 
Q 4056 2841 4056 2131 
z
" transform="scale(0.015625)"/>
      </defs>
      <use xlink:href="#DejaVuSans-Bold-4c"/>
      <use xlink:href="#DejaVuSans-Bold-65" transform="translate(63.720703 0)"/>
      <use xlink:href="#DejaVuSans-Bold-67" transform="translate(131.542969 0)"/>
      <use xlink:href="#DejaVuSans-Bold-65" transform="translate(203.125 0)"/>
      <use xlink:href="#DejaVuSans-Bold-6e" transform="translate(270.947266 0)"/>
      <use xlink:href="#DejaVuSans-Bold-64" transform="translate(342.138672 0)"/>
     </g>
    </g>
    <g id="patch_3">
     <path d="M 450.9531 74.613125 
L 474.9531 74.613125 
L 474.9531 66.213125 
L 450.9531 66.213125 
z
" style="fill: #ffa500; stroke: #ffa500; stroke-linejoin: miter"/>
    </g>
    <g id="text_17">
     <!-- PMU node -->
     <g transform="translate(484.5531 74.613125) scale(0.12 -0.12)">
      <use xlink:href="#DejaVuSans-Bold-50"/>
      <use xlink:href="#DejaVuSans-Bold-4d" transform="translate(73.291016 0)"/>
      <use xlink:href="#DejaVuSans-Bold-55" transform="translate(172.802734 0)"/>
      <use xlink:href="#DejaVuSans-Bold-20" transform="translate(254.003906 0)"/>
      <use xlink:href="#DejaVuSans-Bold-6e" transform="translate(288.818359 0)"/>
      <use xlink:href="#DejaVuSans-Bold-6f" transform="translate(360.009766 0)"/>
      <use xlink:href="#DejaVuSans-Bold-64" transform="translate(428.710938 0)"/>
      <use xlink:href="#DejaVuSans-Bold-65" transform="translate(500.292969 0)"/>
     </g>
    </g>
    <g id="patch_4">
     <path d="M 450.9531 92.226875 
L 474.9531 92.226875 
L 474.9531 83.826875 
L 450.9531 83.826875 
z
" style="fill: #87ceeb; stroke: #87ceeb; stroke-linejoin: miter"/>
    </g>
    <g id="text_18">
     <!-- Observed / non-PMU node -->
     <g transform="translate(484.5531 92.226875) scale(0.12 -0.12)">
      <defs>
       <path id="DejaVuSans-Bold-4f" d="M 2719 3878 
Q 2169 3878 1866 3472 
Q 1563 3066 1563 2328 
Q 1563 1594 1866 1187 
Q 2169 781 2719 781 
Q 3272 781 3575 1187 
Q 3878 1594 3878 2328 
Q 3878 3066 3575 3472 
Q 3272 3878 2719 3878 
z
M 2719 4750 
Q 3844 4750 4481 4106 
Q 5119 3463 5119 2328 
Q 5119 1197 4481 553 
Q 3844 -91 2719 -91 
Q 1597 -91 958 553 
Q 319 1197 319 2328 
Q 319 3463 958 4106 
Q 1597 4750 2719 4750 
z
" transform="scale(0.015625)"/>
       <path id="DejaVuSans-Bold-62" d="M 2400 722 
Q 2759 722 2948 984 
Q 3138 1247 3138 1747 
Q 3138 2247 2948 2509 
Q 2759 2772 2400 2772 
Q 2041 2772 1848 2508 
Q 1656 2244 1656 1747 
Q 1656 1250 1848 986 
Q 2041 722 2400 722 
z
M 1656 2988 
Q 1888 3294 2169 3439 
Q 2450 3584 2816 3584 
Q 3463 3584 3878 3070 
Q 4294 2556 4294 1747 
Q 4294 938 3878 423 
Q 3463 -91 2816 -91 
Q 2450 -91 2169 54 
Q 1888 200 1656 506 
L 1656 0 
L 538 0 
L 538 4863 
L 1656 4863 
L 1656 2988 
z
" transform="scale(0.015625)"/>
       <path id="DejaVuSans-Bold-76" d="M 97 3500 
L 1216 3500 
L 2088 1081 
L 2956 3500 
L 4078 3500 
L 2700 0 
L 1472 0 
L 97 3500 
z
" transform="scale(0.015625)"/>
       <path id="DejaVuSans-Bold-2f" d="M 1644 4666 
L 2338 4666 
L 691 -594 
L 0 -594 
L 1644 4666 
z
" transform="scale(0.015625)"/>
      </defs>
      <use xlink:href="#DejaVuSans-Bold-4f"/>
      <use xlink:href="#DejaVuSans-Bold-62" transform="translate(85.009766 0)"/>
      <use xlink:href="#DejaVuSans-Bold-73" transform="translate(156.591797 0)"/>
      <use xlink:href="#DejaVuSans-Bold-65" transform="translate(216.113281 0)"/>
      <use xlink:href="#DejaVuSans-Bold-72" transform="translate(283.935547 0)"/>
      <use xlink:href="#DejaVuSans-Bold-76" transform="translate(333.251953 0)"/>
      <use xlink:href="#DejaVuSans-Bold-65" transform="translate(398.4375 0)"/>
      <use xlink:href="#DejaVuSans-Bold-64" transform="translate(466.259766 0)"/>
      <use xlink:href="#DejaVuSans-Bold-20" transform="translate(537.841797 0)"/>
      <use xlink:href="#DejaVuSans-Bold-2f" transform="translate(572.65625 0)"/>
      <use xlink:href="#DejaVuSans-Bold-20" transform="translate(609.179688 0)"/>
      <use xlink:href="#DejaVuSans-Bold-6e" transform="translate(643.994141 0)"/>
      <use xlink:href="#DejaVuSans-Bold-6f" transform="translate(715.185547 0)"/>
      <use xlink:href="#DejaVuSans-Bold-6e" transform="translate(783.886719 0)"/>
      <use xlink:href="#DejaVuSans-Bold-2d" transform="translate(855.078125 0)"/>
      <use xlink:href="#DejaVuSans-Bold-50" transform="translate(896.582031 0)"/>
      <use xlink:href="#DejaVuSans-Bold-4d" transform="translate(969.873047 0)"/>
      <use xlink:href="#DejaVuSans-Bold-55" transform="translate(1069.384766 0)"/>
      <use xlink:href="#DejaVuSans-Bold-20" transform="translate(1150.585938 0)"/>
      <use xlink:href="#DejaVuSans-Bold-6e" transform="translate(1185.400391 0)"/>
      <use xlink:href="#DejaVuSans-Bold-6f" transform="translate(1256.591797 0)"/>
      <use xlink:href="#DejaVuSans-Bold-64" transform="translate(1325.292969 0)"/>
      <use xlink:href="#DejaVuSans-Bold-65" transform="translate(1396.875 0)"/>
     </g>
    </g>
    <g id="line2d_2">
     <path d="M 450.9531 105.640625 
L 462.9531 105.640625 
L 474.9531 105.640625 
" style="fill: none; stroke: #ff0000; stroke-width: 4; stroke-linecap: square"/>
    </g>
    <g id="text_19">
     <!-- Failed branch -->
     <g transform="translate(484.5531 109.840625) scale(0.12 -0.12)">
      <defs>
       <path id="DejaVuSans-Bold-46" d="M 588 4666 
L 3834 4666 
L 3834 3756 
L 1791 3756 
L 1791 2888 
L 3713 2888 
L 3713 1978 
L 1791 1978 
L 1791 0 
L 588 0 
L 588 4666 
z
" transform="scale(0.015625)"/>
       <path id="DejaVuSans-Bold-69" d="M 538 3500 
L 1656 3500 
L 1656 0 
L 538 0 
L 538 3500 
z
M 538 4863 
L 1656 4863 
L 1656 3950 
L 538 3950 
L 538 4863 
z
" transform="scale(0.015625)"/>
       <path id="DejaVuSans-Bold-63" d="M 3366 3391 
L 3366 2478 
Q 3138 2634 2908 2709 
Q 2678 2784 2431 2784 
Q 1963 2784 1702 2511 
Q 1441 2238 1441 1747 
Q 1441 1256 1702 982 
Q 1963 709 2431 709 
Q 2694 709 2930 787 
Q 3166 866 3366 1019 
L 3366 103 
Q 3103 6 2833 -42 
Q 2563 -91 2291 -91 
Q 1344 -91 809 395 
Q 275 881 275 1747 
Q 275 2613 809 3098 
Q 1344 3584 2291 3584 
Q 2566 3584 2833 3536 
Q 3100 3488 3366 3391 
z
" transform="scale(0.015625)"/>
       <path id="DejaVuSans-Bold-68" d="M 4056 2131 
L 4056 0 
L 2931 0 
L 2931 347 
L 2931 1625 
Q 2931 2084 2911 2256 
Q 2891 2428 2841 2509 
Q 2775 2619 2662 2680 
Q 2550 2741 2406 2741 
Q 2056 2741 1856 2470 
Q 1656 2200 1656 1722 
L 1656 0 
L 538 0 
L 538 4863 
L 1656 4863 
L 1656 2988 
Q 1909 3294 2193 3439 
Q 2478 3584 2822 3584 
Q 3428 3584 3742 3212 
Q 4056 2841 4056 2131 
z
" transform="scale(0.015625)"/>
      </defs>
      <use xlink:href="#DejaVuSans-Bold-46"/>
      <use xlink:href="#DejaVuSans-Bold-61" transform="translate(62.435547 0)"/>
      <use xlink:href="#DejaVuSans-Bold-69" transform="translate(129.916016 0)"/>
      <use xlink:href="#DejaVuSans-Bold-6c" transform="translate(164.193359 0)"/>
      <use xlink:href="#DejaVuSans-Bold-65" transform="translate(198.470703 0)"/>
      <use xlink:href="#DejaVuSans-Bold-64" transform="translate(266.292969 0)"/>
      <use xlink:href="#DejaVuSans-Bold-20" transform="translate(337.875 0)"/>
      <use xlink:href="#DejaVuSans-Bold-62" transform="translate(372.689453 0)"/>
      <use xlink:href="#DejaVuSans-Bold-72" transform="translate(444.271484 0)"/>
      <use xlink:href="#DejaVuSans-Bold-61" transform="translate(493.587891 0)"/>
      <use xlink:href="#DejaVuSans-Bold-6e" transform="translate(561.068359 0)"/>
      <use xlink:href="#DejaVuSans-Bold-63" transform="translate(632.259766 0)"/>
      <use xlink:href="#DejaVuSans-Bold-68" transform="translate(691.537109 0)"/>
     </g>
    </g>
   </g>
  </g>
 </g>
 <defs>
  <clipPath id="p0c4d49a90b">
   <rect x="115.2225" y="31.43625" width="315.03" height="529.68"/>
  </clipPath>
 </defs>
</svg>
